HIERARCHY
ROOT Hips
{
	OFFSET 0.00000 0.00000 0.00000
	CHANNELS 6 Xposition Yposition Zposition Zrotation Yrotation Xrotation 
	JOINT LHipJoint
	{
		OFFSET 0 0 0
		CHANNELS 3 Zrotation Yrotation Xrotation
		JOINT LeftUpLeg
		{
			OFFSET 1.75344 -1.53157 0.77399
			CHANNELS 3 Zrotation Yrotation Xrotation
			JOINT LeftLeg
			{
				OFFSET 2.25415 -6.19323 0.00000
				CHANNELS 3 Zrotation Yrotation Xrotation
				JOINT LeftFoot
				{
					OFFSET 2.30342 -6.32861 0.00000
					CHANNELS 3 Zrotation Yrotation Xrotation
					JOINT LeftToeBase
					{
						OFFSET 0.10958 -0.30108 1.49206
						CHANNELS 3 Zrotation Yrotation Xrotation
						End Site
						{
							OFFSET 0.00000 -0.00000 0.77783
						}
					}
				}
			}
		}
	}
	JOINT RHipJoint
	{
		OFFSET 0 0 0
		CHANNELS 3 Zrotation Yrotation Xrotation
		JOINT RightUpLeg
		{
			OFFSET -1.81912 -1.53156 0.77399
			CHANNELS 3 Zrotation Yrotation Xrotation
			JOINT RightLeg
			{
				OFFSET -2.22882 -6.12365 0.00000
				CHANNELS 3 Zrotation Yrotation Xrotation
				JOINT RightFoot
				{
					OFFSET -2.21943 -6.09785 0.00000
					CHANNELS 3 Zrotation Yrotation Xrotation
					JOINT RightToeBase
					{
						OFFSET -0.18931 -0.52012 1.59379
						CHANNELS 3 Zrotation Yrotation Xrotation
						End Site
						{
							OFFSET -0.00000 -0.00000 0.84686
						}
					}
				}
			}
		}
	}
	JOINT LowerBack
	{
		OFFSET 0 0 0
		CHANNELS 3 Zrotation Yrotation Xrotation
		JOINT Spine
		{
			OFFSET -0.00200 1.66634 -0.14248
			CHANNELS 3 Zrotation Yrotation Xrotation
			JOINT Spine1
			{
				OFFSET -0.00875 1.64542 0.09514
				CHANNELS 3 Zrotation Yrotation Xrotation
				JOINT Neck
				{
					OFFSET 0 0 0
					CHANNELS 3 Zrotation Yrotation Xrotation
					JOINT Neck1
					{
						OFFSET 0.02257 1.59605 0.00839
						CHANNELS 3 Zrotation Yrotation Xrotation
						JOINT Head
						{
							OFFSET -0.10214 1.57530 -0.23335
							CHANNELS 3 Zrotation Yrotation Xrotation
							End Site
							{
								OFFSET -0.03588 1.60717 -0.08062
							}
						}
					}
				}
				JOINT LeftShoulder
				{
					OFFSET 0 0 0
					CHANNELS 3 Zrotation Yrotation Xrotation
					JOINT LeftArm
					{
						OFFSET 2.54983 1.10186 0.40078
						CHANNELS 3 Zrotation Yrotation Xrotation
						JOINT LeftForeArm
						{
							OFFSET 4.28840 -0.00000 0.00000
							CHANNELS 3 Zrotation Yrotation Xrotation
							JOINT LeftHand
							{
								OFFSET 3.06552 -0.00000 -0.00000
								CHANNELS 3 Zrotation Yrotation Xrotation
								JOINT LeftFingerBase
								{
									OFFSET 0 0 0
									CHANNELS 3 Zrotation Yrotation Xrotation
									JOINT LeftHandIndex1
									{
										OFFSET 0.75304 -0.00000 0.00000
										CHANNELS 3 Zrotation Yrotation Xrotation
										End Site
										{
											OFFSET 0.60712 -0.00000 0.00000
										}
									}
								}
								JOINT LThumb
								{
									OFFSET 0 0 0
									CHANNELS 3 Zrotation Yrotation Xrotation
									End Site
									{
										OFFSET 0.61639 -0.00000 0.61639
									}
								}
							}
						}
					}
				}
				JOINT RightShoulder
				{
					OFFSET 0 0 0
					CHANNELS 3 Zrotation Yrotation Xrotation
					JOINT RightArm
					{
						OFFSET -2.60909 1.35448 0.21802
						CHANNELS 3 Zrotation Yrotation Xrotation
						JOINT RightForeArm
						{
							OFFSET -4.52172 -0.00000 -0.00000
							CHANNELS 3 Zrotation Yrotation Xrotation
							JOINT RightHand
							{
								OFFSET -2.89140 -0.00000 0.00000
								CHANNELS 3 Zrotation Yrotation Xrotation
								JOINT RightFingerBase
								{
									OFFSET 0 0 0
									CHANNELS 3 Zrotation Yrotation Xrotation
									JOINT RightHandIndex1
									{
										OFFSET -0.68054 -0.00000 0.00000
										CHANNELS 3 Zrotation Yrotation Xrotation
										End Site
										{
											OFFSET -0.54867 -0.00000 0.00000
										}
									}
								}
								JOINT RThumb
								{
									OFFSET 0 0 0
									CHANNELS 3 Zrotation Yrotation Xrotation
									End Site
									{
										OFFSET -0.55705 -0.00000 0.55705
									}
								}
							}
						}
					}
				}
			}
		}
	}
}
MOTION
Frames: 10
Frame Time: .0083333
9.4252 15.4529 20.9348 0 0 0 0 0 0 -21 0 0 0 0 0 0 0 0 0 0 0 0 0 0 21 0 0 0 0 0 0 0 0 0 0 0 0 0 0 0 0 0 0 0 0 0 0 -16 0 0 21 0 0 11 0 0 0 -8 0 0 0 0 0 0 0 0 0 0 0 0 0 0 0 0 0 0 0 0 8 0 0 0 0 0 0 0 0 0 0 0 0 0 0 0 0 0
9.4252 15.4529 20.9348 -178.5710 15.7347 -177.6770 0.0000 0.0000 0.0000 -22.0672 -7.7498 -4.2828 1.9473 8.7555 25.0334 1.2484 13.1756 -29.5381 4.1698 -12.3831 -37.1009 0.0000 0.0000 0.0000 25.1266 18.4408 -0.5278 -1.3870 -7.4515 21.0599 -0.4450 -9.8330 -19.7718 -0.3115 3.5878 -9.9198 1.6408 0.8022 7.3704 0.7331 1.4013 -4.4034 -0.3583 0.6437 -8.7813 -4.8041 0.3054 -6.5805 4.8100 0.7124 15.0007 2.3703 0.5966 5.5638 -0.0000 -0.0000 0.0000 -88.3306 9.4851 30.3593 22.5574 -33.6013 -6.8918 -0.0000 -0.0000 7.8893 3.5159 -37.3782 -2.1361 -7.1250 0.0000 -0.0000 -16.0751 -6.1709 18.4143 -0.0000 -0.0000 0.0000 84.8617 -11.6085 31.7074 -23.0377 34.1300 -7.1594 0.0000 0.0000 17.5178 2.3878 -49.8059 -1.8244 7.1250 -0.0000 -0.0000 65.8249 -69.3495 -44.5071
9.4269 15.4512 20.9389 -178.4950 15.6250 -177.7030 0.0000 0.0000 0.0000 -21.9574 -7.8149 -4.2710 1.9535 8.7685 25.0739 1.2344 13.2118 -29.4764 4.2251 -12.4541 -37.3580 0.0000 0.0000 0.0000 25.2556 18.4320 -0.4471 -1.3799 -7.4333 21.0056 -0.4399 -9.9405 -19.8268 -0.2928 3.4794 -9.6166 1.7514 0.7481 7.4602 0.7209 1.3381 -4.3543 -0.4250 0.6047 -8.7792 -4.6819 0.3123 -6.4948 4.7373 0.7038 14.7333 2.3214 0.5869 5.4671 -0.0000 -0.0000 0.0000 -88.2090 9.3269 29.8772 22.5687 -33.6138 -6.8980 -0.0000 -0.0000 7.9992 3.1460 -37.5413 -1.9182 -7.1250 0.0000 -0.0000 -16.2744 -6.2875 18.6911 -0.0000 -0.0000 0.0000 84.8084 -11.6127 31.7386 -23.8012 34.9533 -7.5924 0.0000 0.0000 16.4949 3.5192 -52.4379 -2.7909 7.1250 -0.0000 -0.0000 73.0991 -69.9477 -51.7547
9.4288 15.4522 20.9394 -178.5210 15.5990 -177.7130 0.0000 0.0000 0.0000 -21.9774 -7.8587 -4.2492 1.9517 8.7647 25.0622 1.2187 13.2726 -29.4244 4.2609 -12.4998 -37.5237 0.0000 0.0000 0.0000 25.2426 18.3887 -0.4848 -1.3883 -7.4550 21.0705 -0.4448 -9.9189 -19.8567 -0.3009 3.5272 -9.7502 1.7794 0.7423 7.4570 0.6501 1.3222 -4.2918 -0.5125 0.5921 -8.7072 -4.5084 0.3019 -6.4854 4.6799 0.6653 14.4949 2.2681 0.5669 5.3941 0.0000 0.0000 0.0000 -87.9694 9.1823 29.5052 22.6496 -33.7034 -6.9429 -0.0000 -0.0000 7.9165 2.6576 -37.5494 -1.6204 -7.1250 0.0000 -0.0000 -16.5259 -6.2442 18.9934 0.0000 0.0000 0.0000 84.7221 -11.4821 31.1479 -23.6745 34.8182 -7.5199 0.0000 0.0000 17.2026 2.8830 -51.0413 -2.2426 7.1250 -0.0000 -0.0000 69.1703 -69.6786 -47.8471
9.4297 15.4542 20.9436 -178.6030 15.7336 -177.6480 0.0000 0.0000 0.0000 -22.0530 -7.8445 -4.3458 1.9487 8.7584 25.0424 1.2053 13.3358 -29.3903 4.2327 -12.4638 -37.3930 0.0000 0.0000 0.0000 25.1123 18.4343 -0.6387 -1.3947 -7.4713 21.1193 -0.4522 -9.7506 -19.7649 -0.3156 3.6112 -9.9852 1.7218 0.7751 7.4003 0.5838 1.3493 -4.2496 -0.5528 0.6063 -8.6269 -4.3638 0.3030 -6.5652 4.5987 0.6556 14.4001 2.2169 0.5608 5.3798 0.0000 0.0000 0.0000 -87.7687 8.9810 29.1618 22.6565 -33.7110 -6.9467 -0.0000 -0.0000 7.8467 3.3081 -37.5501 -2.0176 -7.1250 0.0000 -0.0000 -16.1915 -6.3131 18.5944 0.0000 0.0000 0.0000 84.6111 -11.2913 30.7900 -23.8674 35.0237 -7.6303 0.0000 0.0000 16.8640 2.9746 -51.3821 -2.3249 7.1250 -0.0000 -0.0000 70.0807 -69.7736 -48.7808
9.4297 15.4542 20.9497 -178.6610 15.8424 -177.6020 0.0000 0.0000 0.0000 -22.0957 -7.7844 -4.4192 1.9415 8.7432 24.9953 1.1890 13.4272 -29.3618 4.2478 -12.4830 -37.4629 0.0000 0.0000 0.0000 25.0220 18.5381 -0.7872 -1.4057 -7.4995 21.2039 -0.4562 -9.6575 -19.7144 -0.3038 3.5438 -9.7965 1.6683 0.7584 7.3626 0.5680 1.3143 -4.1829 -0.5329 0.5916 -8.5336 -4.3356 0.3532 -6.6171 4.5725 0.7149 14.2263 2.2053 0.5837 5.3321 -0.0000 0.0000 0.0000 -87.6730 8.6849 28.6531 22.5365 -33.5781 -6.8802 -0.0000 -0.0000 7.8309 3.9148 -37.7163 -2.3972 -7.1250 0.0000 -0.0000 -15.8886 -6.5384 18.2744 -0.0000 0.0000 0.0000 84.6412 -10.8566 30.1082 -24.1211 35.2920 -7.7764 0.0000 0.0000 16.3293 1.6944 -51.1584 -1.3199 7.1250 -0.0000 -0.0000 68.7030 -70.1286 -47.9811
9.4300 15.4534 20.9532 -178.7240 15.8097 -177.5920 0.0000 0.0000 0.0000 -22.1432 -7.7881 -4.4250 1.9297 8.7182 24.9177 1.1604 13.5105 -29.2431 4.3030 -12.5531 -37.7178 0.0000 0.0000 0.0000 24.9588 18.5673 -0.8754 -1.4159 -7.5255 21.2819 -0.4505 -9.7271 -19.7234 -0.2947 3.4908 -9.6483 1.4707 0.7026 7.5927 0.6694 1.2354 -4.2740 -0.3079 0.5667 -8.7753 -4.5298 0.4317 -6.5490 4.6870 0.8233 14.1123 2.2779 0.6314 5.2784 0.0000 0.0000 0.0000 -87.7544 8.7097 28.0688 22.4722 -33.5066 -6.8447 -0.0000 -0.0000 7.9608 3.8284 -37.9213 -2.3550 -7.1250 0.0000 -0.0000 -15.9451 -6.7252 18.3905 0.0000 0.0000 0.0000 84.4225 -10.8706 29.5217 -24.4266 35.6122 -7.9536 0.0000 0.0000 16.2436 -1.2473 -48.8117 0.9388 7.1250 -0.0000 -0.0000 60.7886 -70.1318 -41.1708
9.4328 15.4571 20.9605 -178.7560 16.2575 -177.3600 0.0000 0.0000 0.0000 -22.1561 -7.6451 -4.7081 1.9184 8.6940 24.8426 1.1479 13.6517 -29.2871 4.2813 -12.5257 -37.6179 0.0000 0.0000 0.0000 24.8367 18.8927 -1.1564 -1.4217 -7.5403 21.3262 -0.4564 -9.5155 -19.5740 -0.2901 3.4639 -9.5731 1.4480 0.8055 7.2628 0.6103 1.3556 -4.1903 -0.3689 0.6267 -8.4879 -4.5398 0.5064 -6.5657 4.8141 0.8952 13.8032 2.3190 0.6662 5.1808 0.0000 -0.0000 0.0000 -87.4906 8.3494 27.5973 22.4467 -33.4781 -6.8306 -0.0000 -0.0000 7.9707 3.8745 -37.7940 -2.3766 -7.1250 0.0000 -0.0000 -15.9139 -6.6084 18.3231 0.0000 -0.0000 0.0000 84.3431 -10.6286 29.0849 -24.6202 35.8132 -8.0666 0.0000 0.0000 16.4137 -2.6725 -47.4063 1.9681 7.1250 -0.0000 -0.0000 56.3284 -69.9006 -37.2827
9.4335 15.4586 20.9598 -178.8200 15.8496 -177.4650 0.0000 0.0000 0.0000 -22.2251 -7.9502 -4.4942 1.9065 8.6686 24.7639 1.1364 13.6766 -29.2311 4.3323 -12.5899 -37.8520 0.0000 0.0000 0.0000 24.8317 18.6802 -1.0512 -1.4217 -7.5403 21.3264 -0.4593 -9.6859 -19.7757 -0.2765 3.3822 -9.3448 1.2874 0.6431 7.8068 0.7267 1.1491 -4.3882 -0.1352 0.5369 -9.0316 -4.5858 0.5021 -6.5338 4.6428 0.9238 13.9688 2.2771 0.6702 5.2265 -0.0000 -0.0000 0.0000 -87.5365 8.5640 27.1615 22.3746 -33.3978 -6.7909 -0.0000 -0.0000 7.9744 4.2629 -37.6926 -2.6095 -7.1250 0.0000 -0.0000 -15.7080 -6.5547 18.0545 -0.0000 -0.0000 0.0000 83.9031 -11.0158 28.6526 -24.8476 36.0478 -8.2000 0.0000 0.0000 16.4046 -2.1625 -47.4056 1.5923 7.1250 -0.0000 -0.0000 56.7422 -69.7283 -37.4213
9.4340 15.4608 20.9634 -178.7790 16.2711 -177.3110 0.0000 0.0000 0.0000 -22.1886 -7.8296 -4.6227 1.8976 8.6495 24.7048 1.1788 13.6465 -29.4917 4.1899 -12.4089 -37.1943 0.0000 0.0000 0.0000 24.8053 18.9646 -1.2059 -1.4231 -7.5438 21.3367 -0.4662 -9.5279 -19.6908 -0.2850 3.4331 -9.4870 1.2315 0.7489 8.0510 0.7845 1.3036 -4.5508 -0.0718 0.6173 -9.3549 -4.5646 0.5063 -6.6389 4.5577 0.9492 14.2152 2.2531 0.6832 5.3205 -0.0000 -0.0000 0.0000 -87.4723 8.6230 26.6141 22.2832 -33.2956 -6.7407 -0.0000 -0.0000 8.0938 4.1678 -37.9418 -2.5654 -7.1250 0.0000 -0.0000 -15.7722 -6.7829 18.1896 -0.0000 -0.0000 0.0000 83.5853 -11.2488 28.4390 -25.3606 36.5702 -8.5038 0.0000 0.0000 15.6430 -0.8465 -49.0892 0.6398 7.1250 -0.0000 -0.0000 61.7653 -70.1263 -41.9795
